<mxfile host="app.diagrams.net" agent="Mozilla/5.0 (Windows NT 10.0; Win64; x64) AppleWebKit/537.36 (KHTML, like Gecko) Chrome/128.0.0.0 Safari/537.36" version="24.7.8">
  <diagram name="Page-1" id="uubvkQ-EZH9i1Xo36w5T">
    <mxGraphModel dx="1101" dy="527" grid="0" gridSize="10" guides="1" tooltips="1" connect="1" arrows="1" fold="1" page="1" pageScale="1" pageWidth="850" pageHeight="1100" math="0" shadow="0">
      <root>
        <mxCell id="0" />
        <mxCell id="1" parent="0" />
        <mxCell id="OTOWTnrWBPmuxcwwUDZx-1" value="&lt;font style=&quot;font-size: 15px;&quot;&gt;1) False&lt;/font&gt;&lt;div style=&quot;font-size: 15px;&quot;&gt;&lt;font style=&quot;font-size: 15px;&quot;&gt;2) False&lt;/font&gt;&lt;/div&gt;&lt;div style=&quot;font-size: 15px;&quot;&gt;&lt;font style=&quot;font-size: 15px;&quot;&gt;3) False&lt;/font&gt;&lt;/div&gt;&lt;div style=&quot;font-size: 15px;&quot;&gt;&lt;font style=&quot;font-size: 15px;&quot;&gt;4) Illegal&lt;/font&gt;&lt;/div&gt;&lt;div style=&quot;font-size: 15px;&quot;&gt;&lt;font style=&quot;font-size: 15px;&quot;&gt;5) Illegal&lt;/font&gt;&lt;/div&gt;&lt;div style=&quot;font-size: 15px;&quot;&gt;&lt;font style=&quot;font-size: 15px;&quot;&gt;6) True&lt;/font&gt;&lt;/div&gt;&lt;div style=&quot;font-size: 15px;&quot;&gt;&lt;font style=&quot;font-size: 15px;&quot;&gt;7) True&lt;/font&gt;&lt;/div&gt;&lt;div style=&quot;font-size: 15px;&quot;&gt;&lt;font style=&quot;font-size: 15px;&quot;&gt;8) True&lt;/font&gt;&lt;/div&gt;&lt;div style=&quot;font-size: 15px;&quot;&gt;&lt;font style=&quot;font-size: 15px;&quot;&gt;9) True&lt;/font&gt;&lt;/div&gt;&lt;div style=&quot;font-size: 15px;&quot;&gt;&lt;font style=&quot;font-size: 15px;&quot;&gt;10) True&lt;/font&gt;&lt;/div&gt;" style="text;html=1;align=center;verticalAlign=middle;resizable=0;points=[];autosize=1;strokeColor=none;fillColor=none;" vertex="1" parent="1">
          <mxGeometry x="40" y="60" width="80" height="190" as="geometry" />
        </mxCell>
        <mxCell id="OTOWTnrWBPmuxcwwUDZx-2" value="&lt;font style=&quot;font-size: 35px;&quot;&gt;Part 1:&lt;/font&gt;" style="text;html=1;align=center;verticalAlign=middle;resizable=0;points=[];autosize=1;strokeColor=none;fillColor=none;" vertex="1" parent="1">
          <mxGeometry x="15" width="130" height="60" as="geometry" />
        </mxCell>
        <mxCell id="OTOWTnrWBPmuxcwwUDZx-3" value="&lt;font style=&quot;font-size: 35px;&quot;&gt;Part 2:&lt;/font&gt;" style="text;html=1;align=center;verticalAlign=middle;resizable=0;points=[];autosize=1;strokeColor=none;fillColor=none;" vertex="1" parent="1">
          <mxGeometry x="15" y="280" width="130" height="60" as="geometry" />
        </mxCell>
        <mxCell id="OTOWTnrWBPmuxcwwUDZx-8" style="edgeStyle=orthogonalEdgeStyle;rounded=0;orthogonalLoop=1;jettySize=auto;html=1;exitX=0.5;exitY=1;exitDx=0;exitDy=0;entryX=0.5;entryY=0;entryDx=0;entryDy=0;" edge="1" parent="1" source="OTOWTnrWBPmuxcwwUDZx-4" target="OTOWTnrWBPmuxcwwUDZx-5">
          <mxGeometry relative="1" as="geometry" />
        </mxCell>
        <mxCell id="OTOWTnrWBPmuxcwwUDZx-4" value="Start" style="ellipse;whiteSpace=wrap;html=1;aspect=fixed;fillColor=none;" vertex="1" parent="1">
          <mxGeometry x="80" y="370" width="80" height="80" as="geometry" />
        </mxCell>
        <mxCell id="OTOWTnrWBPmuxcwwUDZx-9" style="edgeStyle=orthogonalEdgeStyle;rounded=0;orthogonalLoop=1;jettySize=auto;html=1;exitX=0.5;exitY=1;exitDx=0;exitDy=0;entryX=0.5;entryY=0;entryDx=0;entryDy=0;" edge="1" parent="1" source="OTOWTnrWBPmuxcwwUDZx-5" target="OTOWTnrWBPmuxcwwUDZx-6">
          <mxGeometry relative="1" as="geometry" />
        </mxCell>
        <mxCell id="OTOWTnrWBPmuxcwwUDZx-5" value="var temp&lt;div&gt;var message&lt;/div&gt;" style="whiteSpace=wrap;html=1;aspect=fixed;fillColor=none;labelBackgroundColor=none;" vertex="1" parent="1">
          <mxGeometry x="75.5" y="467" width="89" height="89" as="geometry" />
        </mxCell>
        <mxCell id="OTOWTnrWBPmuxcwwUDZx-10" style="edgeStyle=orthogonalEdgeStyle;rounded=0;orthogonalLoop=1;jettySize=auto;html=1;exitX=0.5;exitY=1;exitDx=0;exitDy=0;entryX=0.5;entryY=0;entryDx=0;entryDy=0;" edge="1" parent="1" source="OTOWTnrWBPmuxcwwUDZx-6" target="OTOWTnrWBPmuxcwwUDZx-7">
          <mxGeometry relative="1" as="geometry" />
        </mxCell>
        <mxCell id="OTOWTnrWBPmuxcwwUDZx-13" style="edgeStyle=orthogonalEdgeStyle;rounded=0;orthogonalLoop=1;jettySize=auto;html=1;exitX=1;exitY=0.5;exitDx=0;exitDy=0;entryX=0;entryY=0.5;entryDx=0;entryDy=0;" edge="1" parent="1" source="OTOWTnrWBPmuxcwwUDZx-6" target="OTOWTnrWBPmuxcwwUDZx-11">
          <mxGeometry relative="1" as="geometry" />
        </mxCell>
        <mxCell id="OTOWTnrWBPmuxcwwUDZx-6" value="if temp &amp;gt;= 33" style="rhombus;whiteSpace=wrap;html=1;fillColor=none;" vertex="1" parent="1">
          <mxGeometry x="72" y="573" width="96" height="92" as="geometry" />
        </mxCell>
        <mxCell id="OTOWTnrWBPmuxcwwUDZx-14" style="edgeStyle=orthogonalEdgeStyle;rounded=0;orthogonalLoop=1;jettySize=auto;html=1;exitX=1;exitY=0.5;exitDx=0;exitDy=0;entryX=0;entryY=0.5;entryDx=0;entryDy=0;" edge="1" parent="1" source="OTOWTnrWBPmuxcwwUDZx-7" target="OTOWTnrWBPmuxcwwUDZx-12">
          <mxGeometry relative="1" as="geometry" />
        </mxCell>
        <mxCell id="OTOWTnrWBPmuxcwwUDZx-7" value="if temp &amp;lt; 33" style="rhombus;whiteSpace=wrap;html=1;fillColor=none;" vertex="1" parent="1">
          <mxGeometry x="68.5" y="682" width="103" height="99" as="geometry" />
        </mxCell>
        <mxCell id="OTOWTnrWBPmuxcwwUDZx-17" style="edgeStyle=orthogonalEdgeStyle;rounded=0;orthogonalLoop=1;jettySize=auto;html=1;exitX=1;exitY=0.5;exitDx=0;exitDy=0;entryX=0.5;entryY=0;entryDx=0;entryDy=0;" edge="1" parent="1" source="OTOWTnrWBPmuxcwwUDZx-11" target="OTOWTnrWBPmuxcwwUDZx-15">
          <mxGeometry relative="1" as="geometry" />
        </mxCell>
        <mxCell id="OTOWTnrWBPmuxcwwUDZx-11" value="message = &quot;It&#39;s too warm to snow today. Boots are optional.&quot;" style="whiteSpace=wrap;html=1;aspect=fixed;fillColor=none;" vertex="1" parent="1">
          <mxGeometry x="220" y="579" width="80" height="80" as="geometry" />
        </mxCell>
        <mxCell id="OTOWTnrWBPmuxcwwUDZx-18" style="edgeStyle=orthogonalEdgeStyle;rounded=0;orthogonalLoop=1;jettySize=auto;html=1;exitX=1;exitY=0.5;exitDx=0;exitDy=0;entryX=0.5;entryY=1;entryDx=0;entryDy=0;" edge="1" parent="1" source="OTOWTnrWBPmuxcwwUDZx-12" target="OTOWTnrWBPmuxcwwUDZx-15">
          <mxGeometry relative="1" as="geometry" />
        </mxCell>
        <mxCell id="OTOWTnrWBPmuxcwwUDZx-12" value="message = &quot;It may snow today! Be sure to wear your boots and mittens!&quot;" style="whiteSpace=wrap;html=1;aspect=fixed;fillColor=none;" vertex="1" parent="1">
          <mxGeometry x="215.25" y="686.75" width="89.5" height="89.5" as="geometry" />
        </mxCell>
        <mxCell id="OTOWTnrWBPmuxcwwUDZx-19" style="edgeStyle=orthogonalEdgeStyle;rounded=0;orthogonalLoop=1;jettySize=auto;html=1;exitX=1;exitY=0.5;exitDx=0;exitDy=0;entryX=0;entryY=0.5;entryDx=0;entryDy=0;" edge="1" parent="1" source="OTOWTnrWBPmuxcwwUDZx-15" target="OTOWTnrWBPmuxcwwUDZx-16">
          <mxGeometry relative="1" as="geometry" />
        </mxCell>
        <mxCell id="OTOWTnrWBPmuxcwwUDZx-15" value="output message" style="shape=parallelogram;perimeter=parallelogramPerimeter;whiteSpace=wrap;html=1;fixedSize=1;fillColor=none;" vertex="1" parent="1">
          <mxGeometry x="339" y="643" width="120" height="60" as="geometry" />
        </mxCell>
        <mxCell id="OTOWTnrWBPmuxcwwUDZx-16" value="Stop" style="ellipse;whiteSpace=wrap;html=1;aspect=fixed;fillColor=none;" vertex="1" parent="1">
          <mxGeometry x="482" y="633" width="80" height="80" as="geometry" />
        </mxCell>
        <mxCell id="OTOWTnrWBPmuxcwwUDZx-20" value="False" style="text;html=1;align=center;verticalAlign=middle;resizable=0;points=[];autosize=1;strokeColor=none;fillColor=none;" vertex="1" parent="1">
          <mxGeometry x="56.5" y="660" width="47" height="26" as="geometry" />
        </mxCell>
        <mxCell id="OTOWTnrWBPmuxcwwUDZx-21" value="True" style="text;html=1;align=center;verticalAlign=middle;resizable=0;points=[];autosize=1;strokeColor=none;fillColor=none;" vertex="1" parent="1">
          <mxGeometry x="168" y="585" width="42" height="26" as="geometry" />
        </mxCell>
        <mxCell id="OTOWTnrWBPmuxcwwUDZx-22" value="True" style="text;html=1;align=center;verticalAlign=middle;resizable=0;points=[];autosize=1;strokeColor=none;fillColor=none;" vertex="1" parent="1">
          <mxGeometry x="171.5" y="698" width="42" height="26" as="geometry" />
        </mxCell>
        <mxCell id="OTOWTnrWBPmuxcwwUDZx-23" value="a)" style="text;html=1;align=center;verticalAlign=middle;resizable=0;points=[];autosize=1;strokeColor=none;fillColor=none;" vertex="1" parent="1">
          <mxGeometry x="47" y="357" width="29" height="26" as="geometry" />
        </mxCell>
        <mxCell id="OTOWTnrWBPmuxcwwUDZx-34" style="edgeStyle=orthogonalEdgeStyle;rounded=0;orthogonalLoop=1;jettySize=auto;html=1;exitX=0.5;exitY=1;exitDx=0;exitDy=0;entryX=0.5;entryY=0;entryDx=0;entryDy=0;" edge="1" parent="1" source="OTOWTnrWBPmuxcwwUDZx-25" target="OTOWTnrWBPmuxcwwUDZx-27">
          <mxGeometry relative="1" as="geometry" />
        </mxCell>
        <mxCell id="OTOWTnrWBPmuxcwwUDZx-25" value="Start" style="ellipse;whiteSpace=wrap;html=1;aspect=fixed;fillColor=none;" vertex="1" parent="1">
          <mxGeometry x="80" y="1156" width="80" height="80" as="geometry" />
        </mxCell>
        <mxCell id="OTOWTnrWBPmuxcwwUDZx-26" value="b)" style="text;html=1;align=center;verticalAlign=middle;resizable=0;points=[];autosize=1;strokeColor=none;fillColor=none;" vertex="1" parent="1">
          <mxGeometry x="39" y="1141" width="29" height="26" as="geometry" />
        </mxCell>
        <mxCell id="OTOWTnrWBPmuxcwwUDZx-35" style="edgeStyle=orthogonalEdgeStyle;rounded=0;orthogonalLoop=1;jettySize=auto;html=1;exitX=0.5;exitY=1;exitDx=0;exitDy=0;entryX=0.5;entryY=0;entryDx=0;entryDy=0;" edge="1" parent="1" source="OTOWTnrWBPmuxcwwUDZx-27" target="OTOWTnrWBPmuxcwwUDZx-28">
          <mxGeometry relative="1" as="geometry" />
        </mxCell>
        <mxCell id="OTOWTnrWBPmuxcwwUDZx-27" value="var age&lt;div&gt;var message&lt;/div&gt;" style="whiteSpace=wrap;html=1;aspect=fixed;fillColor=none;" vertex="1" parent="1">
          <mxGeometry x="80" y="1254" width="80" height="80" as="geometry" />
        </mxCell>
        <mxCell id="OTOWTnrWBPmuxcwwUDZx-36" style="edgeStyle=orthogonalEdgeStyle;rounded=0;orthogonalLoop=1;jettySize=auto;html=1;exitX=0.5;exitY=1;exitDx=0;exitDy=0;entryX=0.5;entryY=0;entryDx=0;entryDy=0;" edge="1" parent="1" source="OTOWTnrWBPmuxcwwUDZx-28" target="OTOWTnrWBPmuxcwwUDZx-29">
          <mxGeometry relative="1" as="geometry" />
        </mxCell>
        <mxCell id="OTOWTnrWBPmuxcwwUDZx-37" style="edgeStyle=orthogonalEdgeStyle;rounded=0;orthogonalLoop=1;jettySize=auto;html=1;exitX=1;exitY=0.5;exitDx=0;exitDy=0;" edge="1" parent="1" source="OTOWTnrWBPmuxcwwUDZx-28" target="OTOWTnrWBPmuxcwwUDZx-30">
          <mxGeometry relative="1" as="geometry" />
        </mxCell>
        <mxCell id="OTOWTnrWBPmuxcwwUDZx-28" value="if age &amp;gt;= 16" style="rhombus;whiteSpace=wrap;html=1;fillColor=none;" vertex="1" parent="1">
          <mxGeometry x="80" y="1352" width="80" height="80" as="geometry" />
        </mxCell>
        <mxCell id="OTOWTnrWBPmuxcwwUDZx-38" style="edgeStyle=orthogonalEdgeStyle;rounded=0;orthogonalLoop=1;jettySize=auto;html=1;exitX=1;exitY=0.5;exitDx=0;exitDy=0;" edge="1" parent="1" source="OTOWTnrWBPmuxcwwUDZx-29" target="OTOWTnrWBPmuxcwwUDZx-31">
          <mxGeometry relative="1" as="geometry" />
        </mxCell>
        <mxCell id="OTOWTnrWBPmuxcwwUDZx-29" value="if age &amp;lt; 16" style="rhombus;whiteSpace=wrap;html=1;fillColor=none;" vertex="1" parent="1">
          <mxGeometry x="80" y="1450" width="80" height="80" as="geometry" />
        </mxCell>
        <mxCell id="OTOWTnrWBPmuxcwwUDZx-39" style="edgeStyle=orthogonalEdgeStyle;rounded=0;orthogonalLoop=1;jettySize=auto;html=1;exitX=1;exitY=0.5;exitDx=0;exitDy=0;entryX=0.5;entryY=0;entryDx=0;entryDy=0;" edge="1" parent="1" source="OTOWTnrWBPmuxcwwUDZx-30" target="OTOWTnrWBPmuxcwwUDZx-32">
          <mxGeometry relative="1" as="geometry" />
        </mxCell>
        <mxCell id="OTOWTnrWBPmuxcwwUDZx-30" value="message = &quot;You are eligible for a driver&#39;s license.&quot;" style="whiteSpace=wrap;html=1;aspect=fixed;fillColor=none;" vertex="1" parent="1">
          <mxGeometry x="192" y="1352" width="80" height="80" as="geometry" />
        </mxCell>
        <mxCell id="OTOWTnrWBPmuxcwwUDZx-40" style="edgeStyle=orthogonalEdgeStyle;rounded=0;orthogonalLoop=1;jettySize=auto;html=1;exitX=1;exitY=0.5;exitDx=0;exitDy=0;entryX=0.5;entryY=1;entryDx=0;entryDy=0;" edge="1" parent="1" source="OTOWTnrWBPmuxcwwUDZx-31" target="OTOWTnrWBPmuxcwwUDZx-32">
          <mxGeometry relative="1" as="geometry" />
        </mxCell>
        <mxCell id="OTOWTnrWBPmuxcwwUDZx-31" value="message = &quot;You are not eligible for a driver&#39;s license.&quot;" style="whiteSpace=wrap;html=1;aspect=fixed;fillColor=none;" vertex="1" parent="1">
          <mxGeometry x="192" y="1450" width="80" height="80" as="geometry" />
        </mxCell>
        <mxCell id="OTOWTnrWBPmuxcwwUDZx-41" style="edgeStyle=orthogonalEdgeStyle;rounded=0;orthogonalLoop=1;jettySize=auto;html=1;exitX=1;exitY=0.5;exitDx=0;exitDy=0;" edge="1" parent="1" source="OTOWTnrWBPmuxcwwUDZx-32" target="OTOWTnrWBPmuxcwwUDZx-33">
          <mxGeometry relative="1" as="geometry" />
        </mxCell>
        <mxCell id="OTOWTnrWBPmuxcwwUDZx-32" value="output message" style="shape=parallelogram;perimeter=parallelogramPerimeter;whiteSpace=wrap;html=1;fixedSize=1;fillColor=none;" vertex="1" parent="1">
          <mxGeometry x="300" y="1411" width="120" height="60" as="geometry" />
        </mxCell>
        <mxCell id="OTOWTnrWBPmuxcwwUDZx-33" value="Stop" style="ellipse;whiteSpace=wrap;html=1;aspect=fixed;fillColor=none;" vertex="1" parent="1">
          <mxGeometry x="448" y="1401" width="80" height="80" as="geometry" />
        </mxCell>
        <mxCell id="OTOWTnrWBPmuxcwwUDZx-42" value="True" style="text;html=1;align=center;verticalAlign=middle;resizable=0;points=[];autosize=1;strokeColor=none;fillColor=none;" vertex="1" parent="1">
          <mxGeometry x="150" y="1360" width="42" height="26" as="geometry" />
        </mxCell>
        <mxCell id="OTOWTnrWBPmuxcwwUDZx-43" value="True" style="text;html=1;align=center;verticalAlign=middle;resizable=0;points=[];autosize=1;strokeColor=none;fillColor=none;" vertex="1" parent="1">
          <mxGeometry x="150" y="1455" width="42" height="26" as="geometry" />
        </mxCell>
        <mxCell id="OTOWTnrWBPmuxcwwUDZx-44" value="False" style="text;html=1;align=center;verticalAlign=middle;resizable=0;points=[];autosize=1;strokeColor=none;fillColor=none;" vertex="1" parent="1">
          <mxGeometry x="71" y="1428" width="47" height="26" as="geometry" />
        </mxCell>
      </root>
    </mxGraphModel>
  </diagram>
</mxfile>
